<svg width="310" height="331" viewBox="0 0 310 331" fill="none" xmlns="http://www.w3.org/2000/svg">
<path opacity="0.8" d="M182 10.2076C198.31 -9.23128 230 2.30231 230 27.6774V32.2077L214 178L310 124L301.597 179.038C300.6 185.573 296.397 191.173 290.401 193.956C252.454 211.575 225.231 246.292 217.171 287.347L214 303.5L181.468 323.52C169.244 331.042 154.149 332.229 140.9 326.708L117.434 316.931C115.228 316.012 113.455 314.286 112.477 312.105C100.101 284.517 67.5886 272.334 40.1305 284.995L0 303.5L90 189.5L52 60L29.4999 0.207642L90 32.2077L182 10.2076Z" fill="#21F4FE" fill-opacity="0.22"/>
</svg>
