<svg width="298" height="67" viewBox="0 0 298 67" fill="none" xmlns="http://www.w3.org/2000/svg">
<path d="M219.667 47C219.667 52.891 214.891 57.6667 209 57.6667C203.109 57.6667 198.333 52.891 198.333 47C198.333 41.109 203.109 36.3333 209 36.3333C214.891 36.3333 219.667 41.109 219.667 47ZM209 49L21 49V45L209 45V49Z" fill="white"/>
<path d="M288.667 20C288.667 25.891 283.891 30.6667 278 30.6667C272.109 30.6667 267.333 25.891 267.333 20C267.333 14.109 272.109 9.33333 278 9.33333C283.891 9.33333 288.667 14.109 288.667 20ZM278 22L90 22V18L278 18V22Z" fill="white"/>
</svg>
