<svg width="296" height="67" viewBox="0 0 296 67" fill="none" xmlns="http://www.w3.org/2000/svg">
<path d="M78.3333 47C78.3333 52.891 83.109 57.6667 89 57.6667C94.891 57.6667 99.6667 52.891 99.6667 47C99.6667 41.109 94.891 36.3333 89 36.3333C83.109 36.3333 78.3333 41.109 78.3333 47ZM89 49L277 49V45L89 45V49Z" fill="white"/>
<path d="M9.33333 20C9.33333 25.891 14.109 30.6667 20 30.6667C25.891 30.6667 30.6667 25.891 30.6667 20C30.6667 14.109 25.891 9.33333 20 9.33333C14.109 9.33333 9.33333 14.109 9.33333 20ZM20 22L208 22V18L20 18V22Z" fill="white"/>
</svg>
