<svg width="296" height="67" viewBox="0 0 296 67" fill="none" xmlns="http://www.w3.org/2000/svg">
<g clip-path="url(#clip0_553_45)">
<g filter="url(#filter0_d_553_45)">
<path d="M78.3333 47C78.3333 52.891 83.109 57.6667 89 57.6667C94.891 57.6667 99.6667 52.891 99.6667 47C99.6667 41.109 94.891 36.3333 89 36.3333C83.109 36.3333 78.3333 41.109 78.3333 47ZM89 49L277 49V45L89 45V49Z" fill="white"/>
</g>
<g filter="url(#filter1_d_553_45)">
<path d="M9.33333 20C9.33333 25.891 14.109 30.6667 20 30.6667C25.891 30.6667 30.6667 25.891 30.6667 20C30.6667 14.109 25.891 9.33333 20 9.33333C14.109 9.33333 9.33333 14.109 9.33333 20ZM20 22L208 22V18L20 18V22Z" fill="white"/>
</g>
</g>
<defs>
<filter id="filter0_d_553_45" x="51.3335" y="13.3333" width="252.667" height="75.3334" filterUnits="userSpaceOnUse" color-interpolation-filters="sRGB">
<feFlood flood-opacity="0" result="BackgroundImageFix"/>
<feColorMatrix in="SourceAlpha" type="matrix" values="0 0 0 0 0 0 0 0 0 0 0 0 0 0 0 0 0 0 127 0" result="hardAlpha"/>
<feOffset dy="4"/>
<feGaussianBlur stdDeviation="13.5"/>
<feComposite in2="hardAlpha" operator="out"/>
<feColorMatrix type="matrix" values="0 0 0 0 0.0196078 0 0 0 0 0.909804 0 0 0 0 0.980392 0 0 0 1 0"/>
<feBlend mode="normal" in2="BackgroundImageFix" result="effect1_dropShadow_553_45"/>
<feBlend mode="normal" in="SourceGraphic" in2="effect1_dropShadow_553_45" result="shape"/>
</filter>
<filter id="filter1_d_553_45" x="-17.6665" y="-13.6667" width="252.667" height="75.3334" filterUnits="userSpaceOnUse" color-interpolation-filters="sRGB">
<feFlood flood-opacity="0" result="BackgroundImageFix"/>
<feColorMatrix in="SourceAlpha" type="matrix" values="0 0 0 0 0 0 0 0 0 0 0 0 0 0 0 0 0 0 127 0" result="hardAlpha"/>
<feOffset dy="4"/>
<feGaussianBlur stdDeviation="13.5"/>
<feComposite in2="hardAlpha" operator="out"/>
<feColorMatrix type="matrix" values="0 0 0 0 0.0196078 0 0 0 0 0.909804 0 0 0 0 0.980392 0 0 0 1 0"/>
<feBlend mode="normal" in2="BackgroundImageFix" result="effect1_dropShadow_553_45"/>
<feBlend mode="normal" in="SourceGraphic" in2="effect1_dropShadow_553_45" result="shape"/>
</filter>
<clipPath id="clip0_553_45">
<rect width="296" height="67" fill="white"/>
</clipPath>
</defs>
</svg>
